<svg width="32" height="32" viewBox="0 0 32 32" fill="none" xmlns="http://www.w3.org/2000/svg">
  <defs>
    <linearGradient id="gradient" x1="0%" y1="0%" x2="100%" y2="100%">
      <stop offset="0%" style="stop-color:#7c3aed;stop-opacity:1" />
      <stop offset="100%" style="stop-color:#3b82f6;stop-opacity:1" />
    </linearGradient>
  </defs>
  <rect width="32" height="32" rx="8" fill="url(#gradient)"/>
  <!-- Heart icon matching the header -->
  <path d="M16 28c-1.5-1.5-6-4.5-6-10 0-2.5 2-4.5 4.5-4.5s4.5 2 4.5 4.5c0 5.5-4.5 8.5-6 10z" fill="white"/>
  <path d="M16 28c1.5-1.5 6-4.5 6-10 0-2.5-2-4.5-4.5-4.5s-4.5 2-4.5 4.5c0 5.5 4.5 8.5 6 10z" fill="white"/>
  <!-- Subtle shadow effect -->
  <circle cx="16" cy="16" r="14" fill="none" stroke="white" stroke-width="0.5" opacity="0.2"/>
</svg>
